<?xml version="1.0" standalone="no"?>
<!DOCTYPE svg PUBLIC "-//W3C//DTD SVG 20010904//EN"
 "http://www.w3.org/TR/2001/REC-SVG-20010904/DTD/svg10.dtd">
<svg version="1.0" xmlns="http://www.w3.org/2000/svg"
 width="777.000000pt" height="777.000000pt" viewBox="0 0 777.000000 777.000000"
 preserveAspectRatio="xMidYMid meet">
<metadata>
Created by potrace 1.11, written by Peter Selinger 2001-2013
</metadata>
<g transform="translate(0.000000,777.000000) scale(0.100000,-0.100000)"
fill="#000000" stroke="none">
<path d="M2014 5881 c-2 -2 -41 -5 -86 -7 -78 -3 -107 -5 -233 -18 -81 -9
-136 -15 -200 -22 -88 -9 -135 -14 -235 -28 -19 -3 -55 -8 -79 -11 -44 -5 -69
-9 -131 -21 -19 -3 -51 -8 -70 -11 -41 -5 -72 -10 -120 -18 -19 -3 -48 -8 -65
-10 -27 -3 -114 -18 -185 -32 -14 -3 -35 -6 -48 -8 -33 -4 -44 -18 -43 -56 2
-80 16 -99 74 -93 270 27 378 21 467 -24 60 -30 92 -75 114 -160 28 -107 -6
-2009 -59 -3282 -3 -74 -8 -182 -10 -240 -2 -58 -6 -172 -9 -255 -15 -365 -15
-367 47 -359 17 2 50 6 72 9 115 12 143 16 170 22 17 3 46 7 65 9 50 4 94 14
103 24 9 8 13 81 22 400 3 91 7 235 10 320 11 378 15 496 20 660 2 96 7 256
10 355 3 99 7 254 9 345 11 382 22 741 31 1040 3 96 7 263 10 370 13 527 22
828 24 846 1 13 42 31 87 39 139 23 499 23 604 1 13 -3 42 -8 63 -11 111 -17
306 -103 386 -170 50 -41 124 -120 147 -156 30 -48 104 -189 99 -189 -2 0 2
-15 10 -34 8 -18 17 -48 20 -67 3 -18 8 -36 11 -40 3 -5 7 -23 9 -41 3 -18 8
-55 12 -83 8 -60 8 -347 0 -426 -20 -180 -70 -341 -151 -484 -22 -38 -45 -73
-50 -77 -6 -4 -8 -8 -4 -8 8 0 -32 -48 -92 -110 -65 -67 -158 -135 -247 -181
-71 -36 -263 -105 -323 -115 -14 -3 -38 -8 -55 -13 -16 -4 -40 -7 -52 -6 -13
1 -23 -1 -23 -4 0 -3 -21 -7 -48 -8 -237 -10 -240 -11 -233 -83 8 -79 35 -94
176 -93 60 0 133 3 160 7 28 3 68 8 90 11 22 2 65 9 95 15 30 6 64 13 75 15
11 2 30 6 43 9 12 3 30 8 40 10 74 17 242 75 302 105 128 64 262 152 317 209
12 12 24 22 27 22 8 0 76 72 76 80 0 5 9 12 20 15 11 3 20 11 20 16 0 6 11 20
24 32 13 12 49 60 80 107 30 47 60 90 66 97 5 7 10 15 10 18 0 3 10 27 22 53
12 26 21 50 20 55 -1 4 2 7 6 7 4 0 14 17 21 38 8 20 18 48 24 62 6 14 11 30
12 35 2 6 10 37 19 70 9 33 18 69 20 80 19 103 23 134 32 230 19 192 -4 402
-60 562 -72 204 -263 413 -461 504 -27 13 -52 24 -55 24 -3 1 -18 7 -35 14
-50 21 -183 60 -228 66 -23 3 -58 10 -77 15 -34 8 -76 14 -205 27 -68 6 -515
10 -521 4z"/>
<path d="M7234 5851 c-5 -5 -12 -6 -114 -16 -107 -11 -148 -14 -300 -21 -184
-8 -1536 -8 -1735 0 -318 13 -396 16 -590 17 -110 1 -218 -1 -240 -4 -117 -16
-197 -46 -238 -88 -15 -16 -31 -29 -35 -29 -17 0 -103 -176 -101 -208 0 -4 -2
-27 -6 -52 -3 -25 -8 -65 -11 -90 -10 -75 -11 -593 -1 -627 5 -20 15 -33 25
-34 102 -7 142 3 143 34 10 285 19 356 57 472 9 28 17 52 17 55 7 25 50 104
74 134 54 68 164 135 244 150 15 2 31 7 36 10 21 13 134 18 406 18 160 0 317
-2 350 -5 33 -2 67 -5 76 -6 39 -3 39 -6 25 -1106 -8 -594 -15 -916 -31 -1415
-2 -80 -7 -219 -10 -310 -2 -91 -7 -223 -10 -295 -6 -153 -14 -364 -20 -525
-5 -139 -12 -319 -20 -495 -8 -173 -8 -168 10 -181 15 -11 26 -11 115 1 25 3
61 8 80 10 19 2 55 7 80 10 25 3 62 7 83 10 61 6 107 25 108 43 0 9 3 91 5
182 2 91 6 235 9 320 2 85 7 232 10 325 2 94 7 242 10 330 12 378 15 489 19
635 2 85 4 155 6 155 1 0 4 83 6 185 2 102 6 259 9 350 5 165 10 366 19 685 3
94 7 265 10 380 4 116 8 296 11 400 2 105 6 201 8 215 2 14 5 30 6 37 2 18 56
32 103 27 24 -3 68 -7 98 -9 127 -9 301 -22 380 -30 189 -18 289 -24 473 -27
329 -7 492 83 482 267 -5 108 -17 125 -82 122 -24 -1 -47 -4 -49 -6z"/>
</g>
</svg>
